<?xml version="1.0" encoding="UTF-8" standalone="no"?>
<svg
   xmlns:dc="http://purl.org/dc/elements/1.1/"
   xmlns:cc="http://creativecommons.org/ns#"
   xmlns:rdf="http://www.w3.org/1999/02/22-rdf-syntax-ns#"
   xmlns:svg="http://www.w3.org/2000/svg"
   xmlns="http://www.w3.org/2000/svg"
   xmlns:sodipodi="http://sodipodi.sourceforge.net/DTD/sodipodi-0.dtd"
   xmlns:inkscape="http://www.inkscape.org/namespaces/inkscape"
   width="26.458654mm"
   height="7.2901893mm"
   viewBox="0 0 26.458654 7.2901893"
   version="1.1"
   id="svg883"
   inkscape:version="1.0.1 (3bc2e813f5, 2020-09-07)"
   sodipodi:docname="dr-header-2021.svg">
  <defs
     id="defs877" />
  <sodipodi:namedview
     id="base"
     pagecolor="#ffffff"
     bordercolor="#666666"
     borderopacity="1.0"
     inkscape:pageopacity="0.0"
     inkscape:pageshadow="2"
     inkscape:zoom="5.6"
     inkscape:cx="41.54091"
     inkscape:cy="23.665905"
     inkscape:document-units="mm"
     inkscape:current-layer="layer1"
     inkscape:document-rotation="0"
     showgrid="false"
     inkscape:window-width="1258"
     inkscape:window-height="728"
     inkscape:window-x="26"
     inkscape:window-y="0"
     inkscape:window-maximized="0"
     fit-margin-top="0"
     fit-margin-left="0"
     fit-margin-right="0"
     fit-margin-bottom="0" />
  <metadata
     id="metadata880">
    <rdf:RDF>
      <cc:Work
         rdf:about="">
        <dc:format>image/svg+xml</dc:format>
        <dc:type
           rdf:resource="http://purl.org/dc/dcmitype/StillImage" />
        <dc:title></dc:title>
      </cc:Work>
    </rdf:RDF>
  </metadata>
  <g
     inkscape:label="Capa 1"
     inkscape:groupmode="layer"
     id="layer1"
     transform="translate(-85.044483,-78.753715)">
    <g
       id="g1499">
      <g
         inkscape:export-ydpi="96"
         inkscape:export-xdpi="96"
         inkscape:export-filename="/home/h2o/CodeIn/ReactJS/kokoso-cali/public/assets/images/kokoso-header2.png"
         transform="matrix(0.36778832,0,0,0.36778832,50.750425,67.509217)"
         id="g863"
         style="fill:#550000;fill-opacity:1;stroke:#550000;stroke-opacity:1">
        <g
           id="g1517">
          <path
             d="m 93.173455,80.525556 v 3.746529 h 0.263549 q 0.981849,0 1.276403,-0.52193 0.289388,-0.521931 0.289388,-1.312578 0,-0.475421 -0.124024,-0.940508 -0.12919,-0.465086 -0.454751,-0.7183 -0.320393,-0.253213 -1.147213,-0.253213 z m 0,5.467349 H 89.83 v -1.72082 h 0.563271 V 80.525556 H 89.83 v -1.72082 h 3.44164 q 1.178218,0 1.922357,0.144693 0.749306,0.144694 1.410762,0.594277 0.656288,0.454752 1.033525,1.229896 0.186035,0.372069 0.28422,0.795814 0.09819,0.423746 0.09819,0.888832 0,0.93534 -0.397908,1.705317 -0.392739,0.764809 -0.997352,1.173051 -0.589109,0.408243 -1.291906,0.532266 -0.69763,0.124023 -2.160068,0.124023 z"
             style="font-style:normal;font-variant:normal;font-weight:normal;font-stretch:normal;font-size:10.5833px;line-height:1.25;font-family:'Rockwell Extra Bold';-inkscape-font-specification:'Rockwell Extra Bold, ';letter-spacing:0px;word-spacing:0px;opacity:0.997;fill:#550000;fill-opacity:1;stroke:#000000;stroke-width:0.102;stroke-miterlimit:4;stroke-dasharray:none;stroke-opacity:0.973154"
             id="path1482"
             transform="matrix(2.7189553,0,0,2.7189553,-137.98814,-183.55455)" />
          <path
             d="m 102.377,80.380862 v 1.369421 h 0.31006 q 0.60978,0 0.82682,-0.03617 0.23254,-0.03617 0.39274,-0.206705 0.16019,-0.160197 0.16019,-0.439249 0,-0.279052 -0.16019,-0.444416 -0.1602,-0.170531 -0.40825,-0.206705 -0.23771,-0.03617 -0.86816,-0.03617 z m 0.5426,5.612043 h -3.906727 v -1.72082 h 0.583942 v -3.746529 h -0.583942 v -1.72082 h 3.906727 q 0.5271,0 0.97668,0.02067 0.44958,0.0155 0.76998,0.05168 0.32039,0.03101 0.58911,0.08785 0.75447,0.160197 1.22472,0.69763 0.47543,0.547768 0.47543,1.291907 0,0.558103 -0.28939,1.012854 -0.28939,0.449584 -0.75964,0.661457 l 0.99218,1.643305 h 0.51676 v 1.72082 h -2.58898 l -1.56579,-2.935212 H 102.377 v 1.214392 h 0.5426 z"
             style="font-style:normal;font-variant:normal;font-weight:normal;font-stretch:normal;font-size:10.5833px;line-height:1.25;font-family:'Rockwell Extra Bold';-inkscape-font-specification:'Rockwell Extra Bold, ';letter-spacing:0px;word-spacing:0px;opacity:0.997;fill:#550000;fill-opacity:1;stroke:#000000;stroke-width:0.102;stroke-miterlimit:4;stroke-dasharray:none;stroke-opacity:0.973154"
             id="path1484"
             transform="matrix(2.7189553,0,0,2.7189553,-137.98814,-183.55455)" />
          <path
             id="path847"
             style="opacity:0.814628;fill:#550000;fill-opacity:1;stroke:#550000;stroke-width:0.391948;stroke-linecap:round;stroke-opacity:1"
             d="m 86.902105,81.292452 h 3.787937 v -0.788479 h -4.989641 z"
             sodipodi:nodetypes="ccccc"
             transform="matrix(2.7189553,0,0,2.7189553,-137.98814,-183.55455)" />
          <path
             sodipodi:nodetypes="ccccc"
             d="m 88.212745,83.004808 h 2.477297 v -0.788479 h -3.26321 z"
             style="opacity:0.814628;fill:#550000;fill-opacity:1;stroke:#550000;stroke-width:0.31697;stroke-linecap:round;stroke-opacity:1"
             id="path849"
             transform="matrix(2.7189553,0,0,2.7189553,-137.98814,-183.55455)" />
          <path
             id="path851"
             style="opacity:0.814628;fill:#550000;fill-opacity:1;stroke:#550000;stroke-width:0.23953;stroke-linecap:round;stroke-opacity:1"
             d="m 88.998035,84.685746 h 1.414702 V 83.897267 H 88.54923 Z"
             sodipodi:nodetypes="ccccc"
             transform="matrix(2.7189553,0,0,2.7189553,-137.98814,-183.55455)" />
          <path
             id="path857"
             style="opacity:0.814628;fill:#550000;fill-opacity:1;stroke:#550000;stroke-width:1.06569;stroke-linecap:round;stroke-opacity:1"
             d="M 160.13313,37.476 H 149.8339 v -2.14384 h 13.56661 z"
             sodipodi:nodetypes="ccccc" />
          <path
             sodipodi:nodetypes="ccccc"
             d="m 156.56956,42.13182 h -6.73566 v -2.143839 h 8.87252 z"
             style="opacity:0.814628;fill:#550000;fill-opacity:1;stroke:#550000;stroke-width:0.861827;stroke-linecap:round;stroke-opacity:1"
             id="path859" />
          <path
             id="path861"
             style="opacity:0.814628;fill:#550000;fill-opacity:1;stroke:#550000;stroke-width:0.651271;stroke-linecap:round;stroke-opacity:1"
             d="m 154.43439,46.702214 h -3.84651 v -2.143839 h 5.06679 z"
             sodipodi:nodetypes="ccccc" />
        </g>
      </g>
    </g>
  </g>
</svg>
